<svg width="15" height="15" viewBox="0 0 15 15" fill="none" xmlns="http://www.w3.org/2000/svg">
<path d="M7.03125 0C3.14801 0 0 3.14801 0 7.03125C0 10.9145 3.14801 14.0625 7.03125 14.0625C10.9145 14.0625 14.0625 10.9145 14.0625 7.03125C14.0625 3.14801 10.9145 0 7.03125 0ZM4.65958 12.6465C3.17136 12.0163 1.99399 10.8213 1.38588 9.3239C0.777765 7.8265 0.788601 6.149 1.41601 4.65958C1.44589 4.5892 1.47715 4.51941 1.50976 4.45025L3.04688 5.83377V7.68636L5.30566 10.0781H6.44531V11.515L5.06684 12.8016C4.92969 12.7549 4.79394 12.7032 4.65958 12.6465ZM11.3402 11.3402C10.775 11.907 10.1034 12.3565 9.36392 12.6628C8.62443 12.9691 7.83167 13.1262 7.03125 13.125C6.7399 13.125 6.44892 13.1044 6.16049 13.0633L7.38281 11.9225V9.14062H5.70996L3.98438 7.31364V5.41623L1.9834 3.61547C2.64544 2.64031 3.57456 1.87667 4.65946 1.41601C5.58782 1.02329 6.59916 0.867247 7.60271 0.961877C8.60625 1.05651 9.5706 1.39885 10.4092 1.95817L9.0743 3.67444L9.52811 4.80896L9.22093 5.11614L6.91767 4.65551L5.625 5.625V8.20312H10.7812L12.2562 10.1697C11.9997 10.5958 11.6921 10.9888 11.3402 11.3402ZM13.125 7.03125C13.1264 7.78093 12.9885 8.52436 12.7186 9.22374L11.25 7.26562H6.5625V6.09375L7.14483 5.65699L9.52907 6.13386L10.6281 5.03479L10.1445 3.82556L11.1464 2.53717C11.2121 2.5974 11.2766 2.65912 11.3401 2.72232C11.9069 3.28745 12.3564 3.95908 12.6628 4.69857C12.9691 5.43806 13.1262 6.23082 13.125 7.03125Z" fill="black"/>
</svg>
