<svg width="16" height="17" viewBox="0 0 16 17" fill="none" xmlns="http://www.w3.org/2000/svg">
<path d="M3 2.06256V6.64856L10 13.6486L14.586 9.06256L7.586 2.06256H3ZM2 2.06256C2 1.79734 2.10536 1.54299 2.29289 1.35545C2.48043 1.16792 2.73478 1.06256 3 1.06256H7.586C7.85119 1.06262 8.10551 1.16801 8.293 1.35556L15.293 8.35556C15.4805 8.54309 15.5858 8.7974 15.5858 9.06256C15.5858 9.32773 15.4805 9.58203 15.293 9.76956L10.707 14.3556C10.5195 14.543 10.2652 14.6483 10 14.6483C9.73484 14.6483 9.48053 14.543 9.293 14.3556L2.293 7.35556C2.10545 7.16807 2.00006 6.91376 2 6.64856V2.06256Z" fill="black"/>
<path d="M5.5 5.06256C5.36739 5.06256 5.24021 5.00988 5.14645 4.91611C5.05268 4.82235 5 4.69517 5 4.56256C5 4.42995 5.05268 4.30278 5.14645 4.20901C5.24021 4.11524 5.36739 4.06256 5.5 4.06256C5.63261 4.06256 5.75979 4.11524 5.85355 4.20901C5.94732 4.30278 6 4.42995 6 4.56256C6 4.69517 5.94732 4.82235 5.85355 4.91611C5.75979 5.00988 5.63261 5.06256 5.5 5.06256ZM5.5 6.06256C5.89782 6.06256 6.27936 5.90453 6.56066 5.62322C6.84196 5.34192 7 4.96039 7 4.56256C7 4.16474 6.84196 3.78321 6.56066 3.5019C6.27936 3.2206 5.89782 3.06256 5.5 3.06256C5.10218 3.06256 4.72064 3.2206 4.43934 3.5019C4.15804 3.78321 4 4.16474 4 4.56256C4 4.96039 4.15804 5.34192 4.43934 5.62322C4.72064 5.90453 5.10218 6.06256 5.5 6.06256ZM1 7.14856C1.00006 7.41376 1.10545 7.66807 1.293 7.85556L8.75 15.3126L8.707 15.3556C8.51947 15.543 8.26516 15.6483 8 15.6483C7.73484 15.6483 7.48053 15.543 7.293 15.3556L0.293 8.35556C0.105451 8.16807 5.66374e-05 7.91376 0 7.64856L0 3.06256C0 2.79734 0.105357 2.54299 0.292893 2.35545C0.48043 2.16792 0.734784 2.06256 1 2.06256V7.14856Z" fill="black"/>
</svg>
