<svg width="14" height="13" viewBox="0 0 14 13" fill="none" xmlns="http://www.w3.org/2000/svg">
<path d="M12.7037 1.94132e-07H11.4999C11.4587 -4.63795e-05 11.4178 0.00828751 11.3799 0.0244965C11.3419 0.0407055 11.3077 0.0644519 11.2792 0.0942957C11.2507 0.124139 11.2286 0.159459 11.2141 0.198112C11.1997 0.236765 11.1933 0.277947 11.1952 0.31916L11.2968 2.42049C10.7063 1.72465 9.97129 1.16583 9.14289 0.782899C8.3145 0.399966 7.41262 0.20212 6.5 0.203125C3.03012 0.203125 0.200588 3.03494 0.203127 6.50482C0.205666 9.98029 3.02403 12.7969 6.5 12.7969C8.05925 12.7991 9.56345 12.2206 10.7194 11.1742C10.7503 11.1465 10.7752 11.1129 10.7926 11.0753C10.8101 11.0377 10.8197 10.9969 10.8208 10.9555C10.8219 10.9141 10.8146 10.8729 10.7993 10.8344C10.7839 10.7959 10.7609 10.7609 10.7316 10.7316L9.86832 9.86832C9.81369 9.8137 9.74034 9.78187 9.66313 9.77928C9.58591 9.77669 9.5106 9.80352 9.45242 9.85435C8.77029 10.4545 7.92144 10.8325 7.01902 10.9379C6.1166 11.0433 5.20349 10.8711 4.40142 10.4443C3.59935 10.0175 2.94642 9.35637 2.52968 8.54904C2.11294 7.74169 1.95218 6.82651 2.06885 5.92547C2.18551 5.02444 2.57405 4.18037 3.18267 3.50579C3.79128 2.83121 4.59106 2.35817 5.47538 2.14973C6.3597 1.94129 7.28655 2.00735 8.13237 2.33911C8.97818 2.67087 9.70278 3.25256 10.2096 4.00664L7.63166 3.88299C7.59045 3.88103 7.54927 3.88746 7.51061 3.90189C7.47196 3.91632 7.43664 3.93846 7.4068 3.96695C7.37695 3.99544 7.35321 4.02969 7.337 4.06763C7.32079 4.10558 7.31246 4.14642 7.3125 4.18768V5.39145C7.3125 5.47225 7.3446 5.54975 7.40174 5.60689C7.45888 5.66403 7.53638 5.69613 7.61719 5.69613H12.7037C12.7845 5.69613 12.862 5.66403 12.9191 5.60689C12.9763 5.54975 13.0084 5.47225 13.0084 5.39145V0.304688C13.0084 0.22388 12.9763 0.146381 12.9191 0.0892411C12.862 0.0321011 12.7845 1.94132e-07 12.7037 1.94132e-07Z" fill="#EF6A6A"/>
</svg>
